<?xml version="1.0" standalone="no"?>
<!DOCTYPE svg PUBLIC "-//W3C//DTD SVG 20010904//EN"
 "http://www.w3.org/TR/2001/REC-SVG-20010904/DTD/svg10.dtd">
<svg version="1.0" xmlns="http://www.w3.org/2000/svg"
 width="250.000000pt" height="250.000000pt" viewBox="0 0 250.000000 250.000000"
 preserveAspectRatio="xMidYMid meet">

<g transform="translate(0.000000,250.000000) scale(0.100000,-0.100000)"
fill="#000000" stroke="none">
<path d="M150 1260 l0 -1090 1090 0 1090 0 0 1090 0 1090 -1090 0 -1090 0 0
-1090z m863 638 c12 -6 27 -18 34 -27 16 -21 17 -195 2 -224 -9 -16 -9 -22 0
-25 7 -2 11 -45 11 -133 0 -125 -1 -131 -25 -154 -23 -23 -31 -25 -130 -25
l-105 0 0 300 0 300 96 0 c53 0 105 -5 117 -12z m347 -33 l0 -45 -65 0 -65 0
0 -80 0 -80 60 30 c33 16 62 30 65 30 3 0 5 -22 5 -49 l0 -50 -62 -33 -63 -33
-3 -77 -3 -78 66 0 65 0 0 -45 0 -45 -115 0 -115 0 0 271 0 271 29 29 c28 28
34 29 115 29 l86 0 0 -45z m150 23 c0 -20 1 -20 19 -4 10 9 35 19 54 23 31 5
40 1 67 -25 l30 -30 0 -271 0 -271 -50 0 -50 0 0 255 0 255 -35 0 -35 0 0
-255 0 -255 -45 0 -45 0 0 300 0 300 45 0 c39 0 45 -3 45 -22z m-600 -743 l0
-45 -45 0 -45 0 0 -255 0 -255 -50 0 -50 0 0 255 0 255 -45 0 -45 0 0 45 0 45
140 0 140 0 0 -45z m278 -2 l3 -42 -68 -3 -68 -3 -3 -77 c-2 -43 0 -78 3 -78
3 0 32 14 65 30 33 17 62 30 65 30 3 0 5 -22 5 -50 l0 -50 -70 -35 -70 -35 0
-75 0 -75 70 0 70 0 0 -45 0 -45 -115 0 -115 0 0 268 c0 335 -1 333 150 329
l75 -2 3 -42z m298 14 c16 -19 24 -41 24 -66 0 -34 -4 -39 -45 -59 -25 -12
-48 -22 -50 -22 -3 0 -5 20 -5 45 0 45 0 45 -35 45 l-35 0 0 -210 0 -210 35 0
c33 0 35 2 35 35 0 32 4 37 50 60 l50 25 0 -70 c0 -117 -21 -139 -133 -140
-70 0 -81 3 -102 25 l-25 24 0 245 c0 134 3 252 6 261 12 30 64 46 138 42 60
-2 71 -6 92 -30z m174 -98 l0 -131 33 19 32 19 5 110 5 109 45 0 45 0 3 -297
2 -298 -50 0 -50 0 0 135 c0 74 -3 135 -6 135 -3 0 -19 -8 -35 -17 l-29 -17 0
-118 0 -118 -45 0 -45 0 0 300 0 300 45 0 45 0 0 -131z"/>
<path d="M897 1814 c-9 -10 -9 -154 1 -154 4 0 22 9 40 20 32 20 33 22 30 78
-3 55 -4 57 -33 60 -17 2 -34 0 -38 -4z"/>
<path d="M928 1569 l-38 -19 0 -75 0 -75 40 0 40 0 0 95 c0 52 -1 95 -2 95 -2
-1 -20 -10 -40 -21z"/>
</g>
</svg>
